<svg width="1350" height="250" viewBox="0 0 1350 250" fill="none" xmlns="http://www.w3.org/2000/svg">
<mask id="path-1-inside-1_1_4" fill="white">
<path d="M675 0C728.321 0 773.843 33.3861 791.805 80.3944C796.049 91.5012 806.043 100 817.933 100H1325C1338.81 100 1350 111.193 1350 125V125C1350 138.807 1338.81 150 1325 150H817.933C806.043 150 796.049 158.499 791.805 169.606C773.843 216.614 728.321 250 675 250C621.679 250 576.157 216.614 558.195 169.606C553.951 158.499 543.957 150 532.067 150H25C11.1929 150 0 138.807 0 125V125C0 111.193 11.1929 100 25 100H532.067C543.957 100 553.951 91.5012 558.195 80.3943C576.157 33.3861 621.679 0 675 0Z"/>
</mask>
<path d="M675 0C728.321 0 773.843 33.3861 791.805 80.3944C796.049 91.5012 806.043 100 817.933 100H1325C1338.81 100 1350 111.193 1350 125V125C1350 138.807 1338.81 150 1325 150H817.933C806.043 150 796.049 158.499 791.805 169.606C773.843 216.614 728.321 250 675 250C621.679 250 576.157 216.614 558.195 169.606C553.951 158.499 543.957 150 532.067 150H25C11.1929 150 0 138.807 0 125V125C0 111.193 11.1929 100 25 100H532.067C543.957 100 553.951 91.5012 558.195 80.3943C576.157 33.3861 621.679 0 675 0Z" fill="#D9D9D9"/>
<path d="M558.195 80.3943L557.261 80.0374L558.195 80.3943ZM558.195 169.606L559.129 169.249L558.195 169.606ZM791.805 80.3944L790.871 80.7513L791.805 80.3944ZM675 0V1C727.893 1 773.052 34.1175 790.871 80.7513L791.805 80.3944L792.739 80.0374C774.634 32.6547 728.749 -1 675 -1V0ZM817.933 100V101H1325V100V99H817.933V100ZM1325 150V149H817.933V150V151H1325V150ZM791.805 169.606L790.871 169.249C773.052 215.883 727.893 249 675 249V250V251C728.749 251 774.634 217.345 792.739 169.963L791.805 169.606ZM675 250V249C622.107 249 576.948 215.883 559.129 169.249L558.195 169.606L557.261 169.963C575.366 217.345 621.251 251 675 251V250ZM532.067 150V149H25V150V151H532.067V150ZM25 100V101H532.067V100V99H25V100ZM558.195 80.3943L559.129 80.7513C576.948 34.1174 622.107 1 675 1V0V-1C621.251 -1 575.366 32.6547 557.261 80.0374L558.195 80.3943ZM532.067 100V101C544.462 101 554.772 92.1535 559.129 80.7513L558.195 80.3943L557.261 80.0374C553.13 90.8488 543.452 99 532.067 99V100ZM0 125H1C1 111.745 11.7452 101 25 101V100V99C10.6406 99 -1 110.641 -1 125H0ZM25 150V149C11.7452 149 1 138.255 1 125H0H-1C-1 139.359 10.6406 151 25 151V150ZM817.933 150V149C805.538 149 795.228 157.846 790.871 169.249L791.805 169.606L792.739 169.963C796.87 159.151 806.548 151 817.933 151V150ZM1350 125H1349C1349 138.255 1338.25 149 1325 149V150V151C1339.36 151 1351 139.359 1351 125H1350ZM1325 100V101C1338.25 101 1349 111.745 1349 125H1350H1351C1351 110.641 1339.36 99 1325 99V100ZM558.195 169.606L559.129 169.249C554.772 157.846 544.462 149 532.067 149V150V151C543.452 151 553.13 159.151 557.261 169.963L558.195 169.606ZM791.805 80.3944L790.871 80.7513C795.228 92.1535 805.538 101 817.933 101V100V99C806.548 99 796.87 90.8488 792.739 80.0374L791.805 80.3944Z" fill="#E9E3DF" mask="url(#path-1-inside-1_1_4)"/>
</svg>
